name C:/MyDriveSym/Projects/mobilecap/Data\Session20210830_0002\mocap\ForceDataProcessed\walkingTS1_forces.mot
datacolumns 19
datarows 9
range 0.71950000 0.72350000
endheader 
time	R_ground_force_vx	R_ground_force_vy	R_ground_force_vz	R_ground_force_px	R_ground_force_py	R_ground_force_pz	R_ground_torque_x	R_ground_torque_y	R_ground_torque_z	L_ground_force_vx	L_ground_force_vy	L_ground_force_vz	L_ground_force_px	L_ground_force_py	L_ground_force_pz	L_ground_torque_x	L_ground_torque_y	L_ground_torque_z	
          0.71950000	         15.65239200	         64.24738300	         -8.31705100	          0.41390500	          0.00600000	         -0.16333200	          0.00000000	         -0.02338500	          0.00000000	       -109.20764700	        847.58307500	         24.59186500	          0.91116600	          0.00600000	         -0.33143400	          0.00000000	          3.51346900	          0.00000000	
          0.72000000	         15.36989100	         62.97197000	         -8.18456400	          0.41464700	          0.00600000	         -0.16326100	          0.00000000	         -0.01831100	          0.00000000	       -109.20985500	        848.37234700	         24.70331600	          0.91137400	          0.00600000	         -0.33153000	          0.00000000	          3.53061900	          0.00000000	
          0.72050000	         15.08981800	         61.70908000	         -8.05309900	          0.41540700	          0.00600000	         -0.16318800	          0.00000000	         -0.01324400	          0.00000000	       -109.20931400	        849.14611500	         24.81361200	          0.91158200	          0.00600000	         -0.33162700	          0.00000000	          3.54774400	          0.00000000	
          0.72100000	         14.81217600	         60.45868200	         -7.92265700	          0.41618600	          0.00600000	         -0.16311200	          0.00000000	         -0.00818200	          0.00000000	       -109.20603000	        849.90437600	         24.92275500	          0.91179000	          0.00600000	         -0.33172300	          0.00000000	          3.56484500	          0.00000000	
          0.72150000	         14.53697100	         59.22074600	         -7.79323600	          0.41698400	          0.00600000	         -0.16303400	          0.00000000	         -0.00312500	          0.00000000	       -109.20001100	        850.64713000	         25.03074700	          0.91199800	          0.00600000	         -0.33182000	          0.00000000	          3.58191900	          0.00000000	
          0.72200000	         14.26420200	         57.99524000	         -7.66483800	          0.41780400	          0.00600000	         -0.16295400	          0.00000000	          0.00192800	          0.00000000	       -109.19126400	        851.37437400	         25.13758800	          0.91220600	          0.00600000	         -0.33191600	          0.00000000	          3.59896600	          0.00000000	
          0.72250000	         13.99387400	         56.78213300	         -7.53746100	          0.41864500	          0.00600000	         -0.16287000	          0.00000000	          0.00697800	          0.00000000	       -109.17979800	        852.08610900	         25.24328000	          0.91241400	          0.00600000	         -0.33201300	          0.00000000	          3.61598500	          0.00000000	
          0.72300000	         13.72598700	         55.58139000	         -7.41110500	          0.41950900	          0.00600000	         -0.16278400	          0.00000000	          0.01202600	          0.00000000	       -109.16562000	        852.78233400	         25.34782500	          0.91262100	          0.00600000	         -0.33210900	          0.00000000	          3.63297400	          0.00000000	
          0.72350000	         13.46054300	         54.39297700	         -7.28577000	          0.42039600	          0.00600000	         -0.16269500	          0.00000000	          0.01707400	          0.00000000	       -109.14873700	        853.46304900	         25.45122500	          0.91282900	          0.00600000	         -0.33220600	          0.00000000	          3.64993200	          0.00000000	
